<svg xmlns="http://www.w3.org/2000/svg" xmlns:xlink="http://www.w3.org/1999/xlink" width="65" height="88" viewBox="0 0 65 88"><defs><style>.a{fill:none;}.b{fill:#fefefe;stroke:#e1e1e1;}.c{clip-path:url(#a);}.d{fill:#eb1406;}.e{stroke:none;}</style><clipPath id="a"><rect class="a" width="36" height="68" transform="translate(0 1)"/></clipPath></defs><g class="b"><rect class="e" width="65" height="88" rx="6"/><rect class="a" x="0.5" y="0.5" width="64" height="87" rx="5.5"/></g><g transform="translate(23 14)"><g class="c" transform="translate(0 -1)"><rect class="a" width="16" height="16"/><path class="d" d="M7,195.932a19.594,19.594,0,0,1-3.373,4.208A22.445,22.445,0,0,1,0,202.932a22.45,22.45,0,0,1,3.627,2.792A19.586,19.586,0,0,1,7,209.932a19.586,19.586,0,0,1,3.373-4.208A22.45,22.45,0,0,1,14,202.932a22.445,22.445,0,0,1-3.627-2.792A19.594,19.594,0,0,1,7,195.932" transform="translate(1 -194.932)"/><g transform="translate(20)"><rect class="a" width="16" height="16"/><path class="d" d="M7,195.932a19.594,19.594,0,0,1-3.373,4.208A22.445,22.445,0,0,1,0,202.932a22.45,22.45,0,0,1,3.627,2.792A19.586,19.586,0,0,1,7,209.932a19.586,19.586,0,0,1,3.373-4.208A22.45,22.45,0,0,1,14,202.932a22.445,22.445,0,0,1-3.627-2.792A19.594,19.594,0,0,1,7,195.932" transform="translate(1 -194.932)"/></g><g transform="translate(0 54)"><rect class="a" width="16" height="16"/><path class="d" d="M7,195.932a19.594,19.594,0,0,1-3.373,4.208A22.445,22.445,0,0,1,0,202.932a22.45,22.45,0,0,1,3.627,2.792A19.586,19.586,0,0,1,7,209.932a19.586,19.586,0,0,1,3.373-4.208A22.45,22.45,0,0,1,14,202.932a22.445,22.445,0,0,1-3.627-2.792A19.594,19.594,0,0,1,7,195.932" transform="translate(1 -194.932)"/></g><g transform="translate(20 54)"><rect class="a" width="16" height="16"/><path class="d" d="M7,195.932a19.594,19.594,0,0,1-3.373,4.208A22.445,22.445,0,0,1,0,202.932a22.45,22.45,0,0,1,3.627,2.792A19.586,19.586,0,0,1,7,209.932a19.586,19.586,0,0,1,3.373-4.208A22.45,22.45,0,0,1,14,202.932a22.445,22.445,0,0,1-3.627-2.792A19.594,19.594,0,0,1,7,195.932" transform="translate(1 -194.932)"/></g><g transform="translate(0 36)"><rect class="a" width="16" height="16"/><path class="d" d="M7,195.932a19.594,19.594,0,0,1-3.373,4.208A22.445,22.445,0,0,1,0,202.932a22.45,22.45,0,0,1,3.627,2.792A19.586,19.586,0,0,1,7,209.932a19.586,19.586,0,0,1,3.373-4.208A22.45,22.45,0,0,1,14,202.932a22.445,22.445,0,0,1-3.627-2.792A19.594,19.594,0,0,1,7,195.932" transform="translate(1 -194.932)"/></g><g transform="translate(20 36)"><rect class="a" width="16" height="16"/><path class="d" d="M7,195.932a19.594,19.594,0,0,1-3.373,4.208A22.445,22.445,0,0,1,0,202.932a22.45,22.45,0,0,1,3.627,2.792A19.586,19.586,0,0,1,7,209.932a19.586,19.586,0,0,1,3.373-4.208A22.45,22.45,0,0,1,14,202.932a22.445,22.445,0,0,1-3.627-2.792A19.594,19.594,0,0,1,7,195.932" transform="translate(1 -194.932)"/></g><g transform="translate(0 18)"><rect class="a" width="16" height="16"/><path class="d" d="M7,195.932a19.594,19.594,0,0,1-3.373,4.208A22.445,22.445,0,0,1,0,202.932a22.45,22.45,0,0,1,3.627,2.792A19.586,19.586,0,0,1,7,209.932a19.586,19.586,0,0,1,3.373-4.208A22.45,22.45,0,0,1,14,202.932a22.445,22.445,0,0,1-3.627-2.792A19.594,19.594,0,0,1,7,195.932" transform="translate(1 -194.932)"/></g><g transform="translate(20 18)"><rect class="a" width="16" height="16"/><path class="d" d="M7,195.932a19.594,19.594,0,0,1-3.373,4.208A22.445,22.445,0,0,1,0,202.932a22.45,22.45,0,0,1,3.627,2.792A19.586,19.586,0,0,1,7,209.932a19.586,19.586,0,0,1,3.373-4.208A22.45,22.45,0,0,1,14,202.932a22.445,22.445,0,0,1-3.627-2.792A19.594,19.594,0,0,1,7,195.932" transform="translate(1 -194.932)"/></g><g transform="translate(10 10)"><rect class="a" width="16" height="16"/><path class="d" d="M7,195.932a19.594,19.594,0,0,1-3.373,4.208A22.445,22.445,0,0,1,0,202.932a22.45,22.45,0,0,1,3.627,2.792A19.586,19.586,0,0,1,7,209.932a19.586,19.586,0,0,1,3.373-4.208A22.45,22.45,0,0,1,14,202.932a22.445,22.445,0,0,1-3.627-2.792A19.594,19.594,0,0,1,7,195.932" transform="translate(1 -194.932)"/></g><g transform="translate(10 45)"><rect class="a" width="16" height="16"/><path class="d" d="M7,195.932a19.594,19.594,0,0,1-3.373,4.208A22.445,22.445,0,0,1,0,202.932a22.45,22.45,0,0,1,3.627,2.792A19.586,19.586,0,0,1,7,209.932a19.586,19.586,0,0,1,3.373-4.208A22.45,22.45,0,0,1,14,202.932a22.445,22.445,0,0,1-3.627-2.792A19.594,19.594,0,0,1,7,195.932" transform="translate(1 -194.932)"/></g></g></g><g transform="translate(2 3)"><path class="d" d="M-2.354,0H-5.3V-12.21l-2.4,1.716v-3.3l2.4-1.87h2.948ZM4.664.176A4.676,4.676,0,0,1,3.135-.077,3.393,3.393,0,0,1,1.87-.836a3.487,3.487,0,0,1-.8-1.144A4.276,4.276,0,0,1,.792-3.652v-8.36a4.276,4.276,0,0,1,.275-1.672,3.487,3.487,0,0,1,.8-1.144,3.393,3.393,0,0,1,1.265-.759,4.676,4.676,0,0,1,1.529-.253,4.676,4.676,0,0,1,1.529.253,3.393,3.393,0,0,1,1.265.759,3.487,3.487,0,0,1,.8,1.144,4.276,4.276,0,0,1,.275,1.672v8.36A4.276,4.276,0,0,1,8.261-1.98a3.487,3.487,0,0,1-.8,1.144,3.393,3.393,0,0,1-1.265.759A4.676,4.676,0,0,1,4.664.176Zm0-2.64a.877.877,0,0,0,.66-.275,1.294,1.294,0,0,0,.264-.913v-8.36a1.294,1.294,0,0,0-.264-.913.877.877,0,0,0-.66-.275.877.877,0,0,0-.66.275,1.294,1.294,0,0,0-.264.913v8.36A1.294,1.294,0,0,0,4-2.739.877.877,0,0,0,4.664-2.464Z" transform="translate(9 17)"/><rect class="a" width="18" height="18"/></g><g transform="translate(3 21)"><rect class="a" width="16" height="16"/><path class="d" d="M7,195.932a19.594,19.594,0,0,1-3.373,4.208A22.445,22.445,0,0,1,0,202.932a22.45,22.45,0,0,1,3.627,2.792A19.586,19.586,0,0,1,7,209.932a19.586,19.586,0,0,1,3.373-4.208A22.45,22.45,0,0,1,14,202.932a22.445,22.445,0,0,1-3.627-2.792A19.594,19.594,0,0,1,7,195.932" transform="translate(1 -194.932)"/></g></svg>